<svg width="105" height="52" viewBox="0 0 105 52" fill="none" xmlns="http://www.w3.org/2000/svg">
<g clip-path="url(#clip0_837_179)">
<path d="M40.88 50.57H30.53V22.6L24.49 50.57H16.49L9.56 22.6V50.57H0.5V0.75H15.42L20.73 26.6L25.33 0.75H40.88V50.57Z" fill="black" stroke="black" stroke-miterlimit="10"/>
<path d="M104.68 51.01H87.6001L81.6401 32.12V51.01H66.1001V0H81.6401V17.04L88.4401 0H102.85L93.2801 23.26L104.68 51V51.01Z" fill="black"/>
<path d="M71.56 51.09H58.74L56.56 37.37H50.82L48.61 51.09H35.79L45.46 0H61.86L71.55 51.09H71.56ZM55.51 30.28L53.65 15.03L51.89 30.28H55.51Z" fill="black"/>
<path d="M41.6699 18.5898L35.6699 51.5898" stroke="white" stroke-width="0.5" stroke-miterlimit="10"/>
<path d="M65.6699 18.5898L72.1599 51.5098" stroke="white" stroke-width="0.5" stroke-miterlimit="10"/>
</g>
<defs>
<clipPath id="clip0_837_179">
<rect width="104.68" height="51.63" fill="white"/>
</clipPath>
</defs>
</svg>
