<svg width="75" height="75" viewBox="0 0 75 75" fill="none" xmlns="http://www.w3.org/2000/svg">
<rect width="75" height="75" rx="37.5" fill="#2722A4"/>
<g clip-path="url(#clip0_252_128)">
<path d="M29.884 23.8936L23.8923 29.8853L54.0095 60.0024L60.0011 54.0108L29.884 23.8936Z" fill="white"/>
<path d="M22.3505 16.366L16.3589 22.3577L23.8882 29.887L29.8798 23.8953L22.3505 16.366Z" fill="white"/>
<path d="M59.0079 52.8795L57.9121 51.7837L56.1034 53.5924L57.1992 54.6882L59.0079 52.8795Z" fill="black"/>
<path d="M57.0917 50.9693L55.9958 49.8735L54.1872 51.6822L55.283 52.778L57.0917 50.9693Z" fill="black"/>
<path d="M55.1871 49.0389L54.0913 47.9431L50.6153 51.4191L51.7112 52.5149L55.1871 49.0389Z" fill="black"/>
<path d="M47.6517 41.527L46.5559 40.4312L44.7472 42.2398L45.843 43.3356L47.6517 41.527Z" fill="black"/>
<path d="M45.7355 39.6083L44.6396 38.5125L42.831 40.3211L43.9268 41.4169L45.7355 39.6083Z" fill="black"/>
<path d="M43.8307 37.6864L42.7349 36.5906L39.2589 40.0665L40.3547 41.1624L43.8307 37.6864Z" fill="black"/>
<path d="M41.9027 35.7796L40.8069 34.6838L38.9982 36.4925L40.094 37.5883L41.9027 35.7796Z" fill="black"/>
<path d="M39.9864 33.8609L38.8906 32.7651L37.0819 34.5738L38.1778 35.6696L39.9864 33.8609Z" fill="black"/>
<path d="M38.0819 31.9308L36.9861 30.835L33.5101 34.3109L34.6059 35.4067L38.0819 31.9308Z" fill="black"/>
<path d="M36.1598 30.0262L35.064 28.9304L33.2553 30.7391L34.3511 31.8349L36.1598 30.0262Z" fill="black"/>
<path d="M34.2435 28.1078L33.1477 27.012L31.339 28.8206L32.4348 29.9165L34.2435 28.1078Z" fill="black"/>
<path d="M32.327 26.1774L31.2312 25.0815L27.7552 28.5575L28.851 29.6533L32.327 26.1774Z" fill="black"/>
<path d="M30.4108 24.2706L29.3149 23.1748L27.5063 24.9835L28.6021 26.0793L30.4108 24.2706Z" fill="black"/>
<path d="M28.4945 22.3605L27.3987 21.2646L25.59 23.0733L26.6858 24.1691L28.4945 22.3605Z" fill="black"/>
<path d="M26.578 20.43L25.4822 19.3342L22.0062 22.8102L23.102 23.906L26.578 20.43Z" fill="black"/>
<path d="M53.2591 47.1322L52.1633 46.0364L50.3547 47.8451L51.4505 48.9409L53.2591 47.1322Z" fill="black"/>
<path d="M51.3426 45.2137L50.2468 44.1179L48.4381 45.9266L49.534 47.0224L51.3426 45.2137Z" fill="black"/>
<path d="M49.4532 43.4086L48.3574 42.3127L44.8815 45.7887L45.9773 46.8845L49.4532 43.4086Z" fill="black"/>
<path d="M53.38 25.9699L47.3884 19.9783L17.2713 50.0954L23.2629 56.0871L53.38 25.9699Z" fill="white"/>
<path d="M50.823 15.0047L47.8242 18.0034L55.3535 25.5327L58.3523 22.534L50.823 15.0047Z" fill="white"/>
<path d="M47.9764 17.8085L46.48 19.3049L54.0446 26.8696L55.5411 25.3731L47.9764 17.8085Z" fill="black"/>
<path d="M51.131 23.7154L49.6345 22.219L42.1052 29.7483L43.6017 31.2447L51.131 23.7154Z" fill="black"/>
<path d="M43.6036 31.2474L42.1072 29.751L34.5779 37.2803L36.0743 38.7767L43.6036 31.2474Z" fill="black"/>
<path d="M36.068 38.7794L34.5715 37.283L27.0422 44.8123L28.5387 46.3087L36.068 38.7794Z" fill="black"/>
<path d="M28.5379 46.3087L27.0415 44.8123L19.5122 52.3415L21.0086 53.838L28.5379 46.3087Z" fill="black"/>
<path d="M16.5001 49.318L15.0037 50.8145L22.533 58.3437L24.0294 56.8473L16.5001 49.318Z" fill="black"/>
<path d="M22.5319 58.3503C20.1907 58.3503 18.8826 58.3503 16.5414 58.3503L15 56.8172V50.8267L22.5319 58.3586V58.3503Z" fill="white"/>
</g>
<defs>
<clipPath id="clip0_252_128">
<rect width="45" height="45" fill="white" transform="translate(15 15)"/>
</clipPath>
</defs>
</svg>
