<svg width="15" height="14" viewBox="0 0 15 14" fill="none" xmlns="http://www.w3.org/2000/svg">
<g clip-path="url(#clip0_274_114)">
<path fill-rule="evenodd" clip-rule="evenodd" d="M0 7.32411C0 5.56827 0.739233 3.88436 2.05508 2.6428C3.37092 1.40124 5.15559 0.703735 7.01647 0.703735C8.87736 0.703735 10.662 1.40124 11.9779 2.6428C13.2937 3.88436 14.0329 5.56827 14.0329 7.32411C14.0329 9.07994 13.2937 10.7639 11.9779 12.0054C10.662 13.247 8.87736 13.9445 7.01647 13.9445C5.15559 13.9445 3.37092 13.247 2.05508 12.0054C0.739233 10.7639 0 9.07994 0 7.32411H0ZM6.61607 10.1576L10.6557 5.39272L9.92597 4.84191L6.48135 8.90328L4.04149 6.98514L3.44275 7.66307L6.61607 10.1585V10.1576Z" fill="#2722A4"/>
</g>
<defs>
<clipPath id="clip0_274_114">
<rect width="14.0329" height="13.2407" fill="white" transform="translate(0 0.703735)"/>
</clipPath>
</defs>
</svg>
