<svg width="35" height="34" viewBox="0 0 35 34" fill="none" xmlns="http://www.w3.org/2000/svg">
<g clip-path="url(#clip0_464_176)">
<path d="M23.8302 18.3H17.2202V0.26001L23.8302 18.3Z" fill="white"/>
<path d="M10.5601 18.52L17.3601 18.56L17.4701 0L10.5601 18.52Z" fill="white"/>
<path d="M19.2 12.5L17.13 18.78L0 13.13L19.2 12.5Z" fill="white"/>
<path d="M15.06 25.0599L17.13 18.7799L0 13.1299L15.06 25.0599Z" fill="white"/>
<path d="M15.27 12.47L17.34 18.75L34.47 13.1L15.27 12.47Z" fill="white"/>
<path d="M19.4098 25.0201L17.3398 18.7501L34.4698 13.1001L19.4098 25.0201Z" fill="white"/>
<path d="M21.9301 14.8201L16.5601 18.6801L27.1001 33.3201L21.9301 14.8201Z" fill="white"/>
<path d="M11.1802 22.71L16.4902 18.78L27.2202 33.28L11.1802 22.71Z" fill="white"/>
<path d="M12.0802 14.8401L17.4102 18.7501L6.74023 33.2901L12.0802 14.8401Z" fill="white"/>
<path d="M22.7402 22.65L17.4102 18.75L6.74023 33.29L22.7402 22.65Z" fill="white"/>
</g>
<defs>
<clipPath id="clip0_464_176">
<rect width="34.47" height="33.32" fill="white"/>
</clipPath>
</defs>
</svg>
